<svg xmlns="http://www.w3.org/2000/svg" viewBox="0 0 680 770" font-family="system-ui, -apple-system, sans-serif">
  <defs>
    <marker id="a" viewBox="0 0 10 10" refX="10" refY="5" markerWidth="8" markerHeight="8" orient="auto-start-reverse">
      <path d="M 0 0 L 10 5 L 0 10 z" fill="context-stroke"/>
    </marker>
  </defs>

  <!-- Client tier container -->
  <rect x="30" y="20" width="620" height="225" rx="6" fill="#faf5ff" stroke="#9333ea" stroke-width="1"/>
  <text x="55" y="48" font-size="14" font-weight="500" fill="#6b21a8">Client tier — secrets never leave</text>

  <rect x="55" y="65" width="250" height="56" rx="6" fill="#f3e8ff" stroke="#9333ea" stroke-width="1"/>
  <text x="67" y="88" font-size="14" font-weight="500" fill="#6b21a8">Browser editor</text>
  <text x="67" y="106" font-size="12" fill="#9333ea">React SPA · /c/:roomId</text>

  <rect x="365" y="65" width="250" height="56" rx="6" fill="#f3e8ff" stroke="#9333ea" stroke-width="1"/>
  <text x="377" y="88" font-size="14" font-weight="500" fill="#6b21a8">Your agent</text>
  <text x="377" y="106" font-size="12" fill="#9333ea">CLI peer · same encryption</text>

  <rect x="55" y="145" width="280" height="56" rx="6" fill="#f3e8ff" stroke="#9333ea" stroke-width="1"/>
  <text x="67" y="168" font-size="14" font-weight="500" fill="#6b21a8">HKDF key derivation</text>
  <text x="67" y="186" font-size="12" fill="#9333ea">roomSecret → auth · event · presence</text>

  <rect x="395" y="145" width="230" height="56" rx="6" fill="#f3e8ff" stroke="#9333ea" stroke-width="1"/>
  <text x="407" y="168" font-size="14" font-weight="500" fill="#6b21a8">AES-256-GCM</text>
  <text x="407" y="186" font-size="12" fill="#9333ea">Encrypt + decrypt locally</text>

  <!-- Trust boundary -->
  <line x1="30" y1="282" x2="650" y2="282" stroke="#9ca3af" stroke-width="1.5" stroke-dasharray="8 4"/>

  <!-- Arrows through boundary -->
  <line x1="200" y1="255" x2="200" y2="330" stroke="#a855f7" stroke-width="0.5" marker-end="url(#a)"/>
  <line x1="480" y1="330" x2="480" y2="255" stroke="#14b8a6" stroke-width="0.5" marker-end="url(#a)"/>

  <!-- Boundary labels -->
  <text x="340" y="268" font-size="14" font-weight="500" fill="#4b5563" text-anchor="middle">Zero-knowledge boundary</text>
  <text x="340" y="300" font-size="12" fill="#6b7280" text-anchor="middle">Only ciphertext + HMAC proofs cross</text>
  <text x="190" y="295" font-size="12" fill="#7e22ce" text-anchor="end">send</text>
  <text x="490" y="295" font-size="12" fill="#0f766e">relay</text>

  <!-- Cloudflare container -->
  <rect x="30" y="340" width="620" height="390" rx="6" fill="#f0fdfa" stroke="#0d9488" stroke-width="1"/>
  <text x="55" y="368" font-size="14" font-weight="500" fill="#115e59">room.plannotator.ai | Cloudflare — zero knowledge</text>

  <rect x="55" y="385" width="575" height="56" rx="6" fill="#ccfbf1" stroke="#0d9488" stroke-width="1"/>
  <text x="67" y="408" font-size="14" font-weight="500" fill="#115e59">Worker</text>
  <text x="67" y="426" font-size="12" fill="#0d9488">Validate roomId · serve SPA shell</text>

  <!-- Worker → DO arrow -->
  <line x1="340" y1="451" x2="340" y2="475" stroke="#9ca3af" stroke-width="0.5" marker-end="url(#a)"/>
  <text x="352" y="467" font-size="12" fill="#6b7280">route</text>

  <!-- Durable Object container -->
  <rect x="55" y="485" width="575" height="225" rx="6" fill="#ccfbf1" stroke="#0d9488" stroke-width="1"/>
  <text x="80" y="513" font-size="14" font-weight="500" fill="#0f766e">Durable Object — room engine</text>

  <rect x="80" y="530" width="245" height="56" rx="6" fill="#99f6e4" stroke="#0d9488" stroke-width="1"/>
  <text x="92" y="553" font-size="14" font-weight="500" fill="#115e59">Event sequencer</text>
  <text x="92" y="571" font-size="12" fill="#0d9488">Atomic seq + store</text>

  <rect x="385" y="530" width="225" height="56" rx="6" fill="#99f6e4" stroke="#0d9488" stroke-width="1"/>
  <text x="397" y="553" font-size="14" font-weight="500" fill="#115e59">WebSocket hub</text>
  <text x="397" y="571" font-size="12" fill="#0d9488">Broadcast to all peers</text>

  <!-- Sequencer → SQLite arrow -->
  <line x1="200" y1="596" x2="200" y2="620" stroke="#9ca3af" stroke-width="0.5" marker-end="url(#a)"/>
  <text x="212" y="613" font-size="12" fill="#6b7280">persist</text>

  <rect x="80" y="630" width="530" height="56" rx="6" fill="#99f6e4" stroke="#0d9488" stroke-width="1"/>
  <text x="92" y="653" font-size="14" font-weight="500" fill="#115e59">SQLite storage</text>
  <text x="92" y="671" font-size="12" fill="#0d9488">Ciphertext blobs · verifiers · seq numbers</text>
</svg>
